STARTFONT 2.1
COMMENT $XConsortium: lubB08.bdf,v 1.10 94/04/02 16:24:05 gildea Exp $
COMMENT  (c) Copyright Bigelow & Holmes 1986, 1985. Lucida is a registered
COMMENT  trademark of Bigelow & Holmes. See LEGAL NOTICE file for terms 
COMMENT  of the license. 
COMMENT  
COMMENT  Translation to ISO8859-2 by Cub Soft;  Petr.Kolar@vslib.cz
COMMENT  
FONT -B&H-LucidaBright-DemiBold-R-Normal--11-80-100-100-P-66-ISO8859-2
SIZE 8 100 100
FONTBOUNDINGBOX 19 13 -6 -2
STARTPROPERTIES 20
COMMENT Begin LogicalFontDescription
FONTNAME_REGISTRY ""
FOUNDRY "B&H"
FAMILY_NAME "LucidaBright"
WEIGHT_NAME "DemiBold"
SLANT "R"
SETWIDTH_NAME "Normal"
ADD_STYLE_NAME ""
PIXEL_SIZE 11
POINT_SIZE 80
RESOLUTION_X 100
RESOLUTION_Y 100
SPACING "P"
AVERAGE_WIDTH 66
CHARSET_REGISTRY "ISO8859"
CHARSET_ENCODING "2"
COMMENT END LogicalFontDescription
FONT_ASCENT 10
FONT_DESCENT 3
DEFAULT_CHAR 0
COPYRIGHT "Copyright Bigelow & Holmes 1986, 1985., Copyright 1996 Cub Soft"
FACE_NAME "Lucida Bright Demibold"
ENDPROPERTIES
CHARS 191
STARTCHAR space
ENCODING 32
SWIDTH 333 0
DWIDTH 4 0
BBX 1 1 0 0
BITMAP
00
ENDCHAR
STARTCHAR exclam
ENCODING 33
SWIDTH 265 0
DWIDTH 3 0
BBX 2 9 0 0
BITMAP
c0
c0
c0
c0
40
40
00
c0
c0
ENDCHAR
STARTCHAR quotedbl
ENCODING 34
SWIDTH 461 0
DWIDTH 5 0
BBX 5 4 0 5
BITMAP
d8
d8
50
50
ENDCHAR
STARTCHAR numbersign
ENCODING 35
SWIDTH 663 0
DWIDTH 7 0
BBX 7 9 0 0
BITMAP
14
24
7e
28
28
fc
48
50
50
ENDCHAR
STARTCHAR dollar
ENCODING 36
SWIDTH 623 0
DWIDTH 7 0
BBX 5 10 1 -1
BITMAP
78
e8
e0
60
30
38
38
b8
f0
20
ENDCHAR
STARTCHAR percent
ENCODING 37
SWIDTH 759 0
DWIDTH 8 0
BBX 8 9 0 0
BITMAP
63
f2
f4
f8
78
16
2f
4f
c6
ENDCHAR
STARTCHAR ampersand
ENCODING 38
SWIDTH 765 0
DWIDTH 8 0
BBX 8 9 0 0
BITMAP
38
6c
6c
30
73
da
ce
ee
7f
ENDCHAR
STARTCHAR apostrophe
ENCODING 39
SWIDTH 265 0
DWIDTH 3 0
BBX 2 4 0 5
BITMAP
c0
c0
c0
c0
ENDCHAR
STARTCHAR parenleft
ENCODING 40
SWIDTH 327 0
DWIDTH 4 0
BBX 3 11 0 -2
BITMAP
20
40
40
c0
c0
c0
c0
c0
40
40
20
ENDCHAR
STARTCHAR parenright
ENCODING 41
SWIDTH 327 0
DWIDTH 4 0
BBX 3 11 0 -2
BITMAP
80
40
40
60
60
60
60
60
40
40
80
ENDCHAR
STARTCHAR asterisk
ENCODING 42
SWIDTH 434 0
DWIDTH 5 0
BBX 4 4 0 5
BITMAP
60
f0
e0
70
ENDCHAR
STARTCHAR plus
ENCODING 43
SWIDTH 623 0
DWIDTH 7 0
BBX 7 8 0 0
BITMAP
10
10
10
10
fe
10
10
10
ENDCHAR
STARTCHAR comma
ENCODING 44
SWIDTH 265 0
DWIDTH 3 0
BBX 2 4 0 -2
BITMAP
c0
c0
c0
c0
ENDCHAR
STARTCHAR minus
ENCODING 45
SWIDTH 623 0
DWIDTH 7 0
BBX 6 1 0 3
BITMAP
fc
ENDCHAR
STARTCHAR period
ENCODING 46
SWIDTH 265 0
DWIDTH 3 0
BBX 2 2 0 0
BITMAP
c0
c0
ENDCHAR
STARTCHAR slash
ENCODING 47
SWIDTH 527 0
DWIDTH 6 0
BBX 6 11 0 -2
BITMAP
04
08
08
10
10
30
20
20
40
40
80
ENDCHAR
STARTCHAR zero
ENCODING 48
SWIDTH 623 0
DWIDTH 7 0
BBX 6 9 0 0
BITMAP
30
48
cc
cc
cc
cc
cc
48
30
ENDCHAR
STARTCHAR one
ENCODING 49
SWIDTH 623 0
DWIDTH 7 0
BBX 4 9 2 0
BITMAP
e0
60
60
60
60
60
60
60
f0
ENDCHAR
STARTCHAR two
ENCODING 50
SWIDTH 623 0
DWIDTH 7 0
BBX 6 9 0 0
BITMAP
f8
8c
0c
0c
18
20
40
fc
fc
ENDCHAR
STARTCHAR three
ENCODING 51
SWIDTH 623 0
DWIDTH 7 0
BBX 6 9 0 0
BITMAP
f8
8c
0c
08
70
1c
0c
8c
f8
ENDCHAR
STARTCHAR four
ENCODING 52
SWIDTH 623 0
DWIDTH 7 0
BBX 7 9 0 0
BITMAP
0c
1c
2c
4c
fe
fe
0c
0c
1e
ENDCHAR
STARTCHAR five
ENCODING 53
SWIDTH 623 0
DWIDTH 7 0
BBX 5 9 1 0
BITMAP
f8
f8
80
80
f0
38
18
98
f0
ENDCHAR
STARTCHAR six
ENCODING 54
SWIDTH 623 0
DWIDTH 7 0
BBX 6 9 0 0
BITMAP
3c
64
c0
f8
cc
cc
cc
4c
38
ENDCHAR
STARTCHAR seven
ENCODING 55
SWIDTH 623 0
DWIDTH 7 0
BBX 5 9 1 0
BITMAP
f8
f8
10
10
20
60
40
c0
c0
ENDCHAR
STARTCHAR eight
ENCODING 56
SWIDTH 623 0
DWIDTH 7 0
BBX 6 9 0 0
BITMAP
78
cc
cc
68
38
cc
cc
cc
78
ENDCHAR
STARTCHAR nine
ENCODING 57
SWIDTH 623 0
DWIDTH 7 0
BBX 6 9 0 0
BITMAP
70
c8
cc
cc
cc
7c
0c
98
f0
ENDCHAR
STARTCHAR colon
ENCODING 58
SWIDTH 265 0
DWIDTH 3 0
BBX 2 6 0 0
BITMAP
c0
c0
00
00
c0
c0
ENDCHAR
STARTCHAR semicolon
ENCODING 59
SWIDTH 265 0
DWIDTH 3 0
BBX 2 8 0 -2
BITMAP
c0
c0
00
00
c0
c0
c0
80
ENDCHAR
STARTCHAR less
ENCODING 60
SWIDTH 623 0
DWIDTH 7 0
BBX 6 8 0 0
BITMAP
04
0c
30
c0
40
30
08
04
ENDCHAR
STARTCHAR equal
ENCODING 61
SWIDTH 623 0
DWIDTH 7 0
BBX 6 3 0 2
BITMAP
fc
00
fc
ENDCHAR
STARTCHAR greater
ENCODING 62
SWIDTH 623 0
DWIDTH 7 0
BBX 6 8 0 0
BITMAP
80
c0
30
18
0c
30
40
80
ENDCHAR
STARTCHAR question
ENCODING 63
SWIDTH 505 0
DWIDTH 6 0
BBX 5 9 0 0
BITMAP
f0
98
18
10
20
60
60
60
60
ENDCHAR
STARTCHAR at
ENCODING 64
SWIDTH 861 0
DWIDTH 9 0
BBX 9 9 1 0
BITMAP
1e00
2100
5880
9e80
b280
b680
bb80
4000
3e00
ENDCHAR
STARTCHAR A
ENCODING 65
SWIDTH 795 0
DWIDTH 9 0
BBX 9 9 0 0
BITMAP
0800
1c00
1c00
3e00
2600
3f00
4300
4300
c380
ENDCHAR
STARTCHAR B
ENCODING 66
SWIDTH 639 0
DWIDTH 7 0
BBX 6 9 0 0
BITMAP
f8
6c
6c
68
70
6c
6c
6c
f8
ENDCHAR
STARTCHAR C
ENCODING 67
SWIDTH 711 0
DWIDTH 8 0
BBX 7 9 0 0
BITMAP
3e
62
c0
c0
c0
c0
c0
62
3e
ENDCHAR
STARTCHAR D
ENCODING 68
SWIDTH 794 0
DWIDTH 9 0
BBX 8 9 0 0
BITMAP
fc
66
63
63
63
63
63
66
fc
ENDCHAR
STARTCHAR E
ENCODING 69
SWIDTH 601 0
DWIDTH 7 0
BBX 6 9 0 0
BITMAP
fc
64
60
68
78
68
60
64
fc
ENDCHAR
STARTCHAR F
ENCODING 70
SWIDTH 584 0
DWIDTH 6 0
BBX 6 9 0 0
BITMAP
fc
64
60
68
78
68
60
60
e0
ENDCHAR
STARTCHAR G
ENCODING 71
SWIDTH 753 0
DWIDTH 8 0
BBX 8 9 0 0
BITMAP
3e
62
c0
c0
c0
cf
c6
66
3e
ENDCHAR
STARTCHAR H
ENCODING 72
SWIDTH 798 0
DWIDTH 9 0
BBX 9 9 0 0
BITMAP
f780
6300
6300
6300
7f00
6300
6300
6300
f780
ENDCHAR
STARTCHAR I
ENCODING 73
SWIDTH 349 0
DWIDTH 4 0
BBX 4 9 0 0
BITMAP
f0
60
60
60
60
60
60
60
f0
ENDCHAR
STARTCHAR J
ENCODING 74
SWIDTH 452 0
DWIDTH 5 0
BBX 5 11 0 -2
BITMAP
78
30
30
30
30
30
30
30
30
b0
e0
ENDCHAR
STARTCHAR K
ENCODING 75
SWIDTH 747 0
DWIDTH 8 0
BBX 8 9 0 0
BITMAP
f2
66
6c
78
78
7c
6e
66
f7
ENDCHAR
STARTCHAR L
ENCODING 76
SWIDTH 584 0
DWIDTH 6 0
BBX 7 9 0 0
BITMAP
f0
60
60
60
60
60
60
62
fe
ENDCHAR
STARTCHAR M
ENCODING 77
SWIDTH 904 0
DWIDTH 10 0
BBX 10 9 0 0
BITMAP
e1c0
7180
7380
7380
5d80
5d80
4d80
4980
e3c0
ENDCHAR
STARTCHAR N
ENCODING 78
SWIDTH 788 0
DWIDTH 9 0
BBX 8 9 0 0
BITMAP
e7
62
72
72
5a
5e
4e
46
e6
ENDCHAR
STARTCHAR O
ENCODING 79
SWIDTH 810 0
DWIDTH 9 0
BBX 8 9 0 0
BITMAP
3c
66
c3
c3
c3
c3
c3
66
3c
ENDCHAR
STARTCHAR P
ENCODING 80
SWIDTH 614 0
DWIDTH 7 0
BBX 6 9 0 0
BITMAP
f8
6c
6c
6c
78
60
60
60
f0
ENDCHAR
STARTCHAR Q
ENCODING 81
SWIDTH 810 0
DWIDTH 9 0
BBX 9 11 1 -2
BITMAP
3c00
6600
c300
c300
c300
c300
c300
6600
3c00
0780
0100
ENDCHAR
STARTCHAR R
ENCODING 82
SWIDTH 720 0
DWIDTH 8 0
BBX 7 9 1 0
BITMAP
f8
6c
6c
6c
78
78
6c
6e
fe
ENDCHAR
STARTCHAR S
ENCODING 83
SWIDTH 556 0
DWIDTH 6 0
BBX 6 9 0 0
BITMAP
78
c8
c0
e0
78
1c
0c
8c
f8
ENDCHAR
STARTCHAR T
ENCODING 84
SWIDTH 714 0
DWIDTH 8 0
BBX 8 9 0 0
BITMAP
ff
99
18
18
18
18
18
18
3c
ENDCHAR
STARTCHAR U
ENCODING 85
SWIDTH 747 0
DWIDTH 8 0
BBX 8 9 0 0
BITMAP
f7
62
62
62
62
62
62
62
3c
ENDCHAR
STARTCHAR V
ENCODING 86
SWIDTH 753 0
DWIDTH 8 0
BBX 8 9 0 0
BITMAP
e3
62
62
72
34
34
1c
18
18
ENDCHAR
STARTCHAR W
ENCODING 87
SWIDTH 955 0
DWIDTH 10 0
BBX 11 9 0 0
BITMAP
e660
6640
6640
6e40
7b80
3b80
3380
3100
1100
ENDCHAR
STARTCHAR X
ENCODING 88
SWIDTH 702 0
DWIDTH 8 0
BBX 8 9 0 0
BITMAP
f3
62
36
3c
18
2c
6e
46
cf
ENDCHAR
STARTCHAR Y
ENCODING 89
SWIDTH 717 0
DWIDTH 8 0
BBX 8 9 0 0
BITMAP
e3
62
72
34
38
18
18
18
3c
ENDCHAR
STARTCHAR Z
ENCODING 90
SWIDTH 639 0
DWIDTH 7 0
BBX 6 9 0 0
BITMAP
fc
8c
18
38
30
70
60
c4
fc
ENDCHAR
STARTCHAR bracketleft
ENCODING 91
SWIDTH 327 0
DWIDTH 4 0
BBX 3 11 0 -2
BITMAP
e0
c0
c0
c0
c0
c0
c0
c0
c0
c0
e0
ENDCHAR
STARTCHAR backslash
ENCODING 92
SWIDTH 527 0
DWIDTH 6 0
BBX 6 11 0 -2
BITMAP
80
40
40
20
20
30
10
10
08
08
04
ENDCHAR
STARTCHAR bracketright
ENCODING 93
SWIDTH 327 0
DWIDTH 4 0
BBX 3 11 0 -2
BITMAP
e0
60
60
60
60
60
60
60
60
60
e0
ENDCHAR
STARTCHAR asciicircum
ENCODING 94
SWIDTH 623 0
DWIDTH 7 0
BBX 6 8 0 1
BITMAP
10
30
30
30
48
48
c4
84
ENDCHAR
STARTCHAR underscore
ENCODING 95
SWIDTH 500 0
DWIDTH 5 0
BBX 5 1 0 -1
BITMAP
f8
ENDCHAR
STARTCHAR grave
ENCODING 96
SWIDTH 617 0
DWIDTH 7 0
BBX 3 2 2 7
BITMAP
c0
20
ENDCHAR
STARTCHAR a
ENCODING 97
SWIDTH 556 0
DWIDTH 6 0
BBX 6 6 0 0
BITMAP
70
18
f8
d8
d8
6c
ENDCHAR
STARTCHAR b
ENCODING 98
SWIDTH 640 0
DWIDTH 7 0
BBX 7 9 0 0
BITMAP
e0
60
60
6c
7e
66
66
66
7c
ENDCHAR
STARTCHAR c
ENCODING 99
SWIDTH 541 0
DWIDTH 6 0
BBX 5 6 0 0
BITMAP
78
c8
c0
c0
e0
78
ENDCHAR
STARTCHAR d
ENCODING 100
SWIDTH 652 0
DWIDTH 7 0
BBX 7 9 0 0
BITMAP
1c
0c
0c
7c
cc
cc
cc
fc
6e
ENDCHAR
STARTCHAR e
ENCODING 101
SWIDTH 568 0
DWIDTH 6 0
BBX 5 6 0 0
BITMAP
70
d8
f8
c0
e0
78
ENDCHAR
STARTCHAR f
ENCODING 102
SWIDTH 416 0
DWIDTH 5 0
BBX 5 9 0 0
BITMAP
38
68
60
f0
60
60
60
60
f0
ENDCHAR
STARTCHAR g
ENCODING 103
SWIDTH 599 0
DWIDTH 7 0
BBX 6 8 0 -2
BITMAP
7c
d8
d8
70
fc
7c
cc
f8
ENDCHAR
STARTCHAR h
ENCODING 104
SWIDTH 654 0
DWIDTH 7 0
BBX 7 9 0 0
BITMAP
e0
60
60
6c
7c
6c
6c
6c
fe
ENDCHAR
STARTCHAR i
ENCODING 105
SWIDTH 325 0
DWIDTH 4 0
BBX 4 9 0 0
BITMAP
60
60
00
e0
60
60
60
60
f0
ENDCHAR
STARTCHAR j
ENCODING 106
SWIDTH 355 0
DWIDTH 4 0
BBX 4 11 0 -2
BITMAP
30
30
00
70
30
30
30
30
30
b0
f0
ENDCHAR
STARTCHAR k
ENCODING 107
SWIDTH 654 0
DWIDTH 7 0
BBX 7 9 0 0
BITMAP
e0
60
60
64
6c
78
78
6c
fe
ENDCHAR
STARTCHAR l
ENCODING 108
SWIDTH 325 0
DWIDTH 4 0
BBX 4 9 0 0
BITMAP
e0
60
60
60
60
60
60
60
f0
ENDCHAR
STARTCHAR m
ENCODING 109
SWIDTH 967 0
DWIDTH 11 0
BBX 10 6 0 0
BITMAP
e980
7f80
6d80
6d80
6d80
ffc0
ENDCHAR
STARTCHAR n
ENCODING 110
SWIDTH 654 0
DWIDTH 7 0
BBX 7 6 0 0
BITMAP
ec
7c
6c
6c
6c
fe
ENDCHAR
STARTCHAR o
ENCODING 111
SWIDTH 617 0
DWIDTH 7 0
BBX 6 6 0 0
BITMAP
78
cc
cc
cc
cc
78
ENDCHAR
STARTCHAR p
ENCODING 112
SWIDTH 652 0
DWIDTH 7 0
BBX 7 8 0 -2
BITMAP
ec
7e
66
66
66
7c
60
f0
ENDCHAR
STARTCHAR q
ENCODING 113
SWIDTH 640 0
DWIDTH 7 0
BBX 7 8 0 -2
BITMAP
7c
cc
cc
cc
fc
6c
0c
1e
ENDCHAR
STARTCHAR r
ENCODING 114
SWIDTH 462 0
DWIDTH 5 0
BBX 5 6 0 0
BITMAP
e8
78
60
60
60
f0
ENDCHAR
STARTCHAR s
ENCODING 115
SWIDTH 525 0
DWIDTH 6 0
BBX 5 6 0 0
BITMAP
70
d0
f0
78
98
f0
ENDCHAR
STARTCHAR t
ENCODING 116
SWIDTH 389 0
DWIDTH 4 0
BBX 4 9 0 0
BITMAP
60
60
60
f0
60
60
60
60
70
ENDCHAR
STARTCHAR u
ENCODING 117
SWIDTH 654 0
DWIDTH 7 0
BBX 7 6 0 0
BITMAP
fc
6c
6c
6c
7c
6e
ENDCHAR
STARTCHAR v
ENCODING 118
SWIDTH 657 0
DWIDTH 7 0
BBX 7 6 0 0
BITMAP
e6
64
64
38
38
10
ENDCHAR
STARTCHAR w
ENCODING 119
SWIDTH 880 0
DWIDTH 10 0
BBX 10 6 0 0
BITMAP
e4c0
6e80
6e80
7f00
3300
3300
ENDCHAR
STARTCHAR x
ENCODING 120
SWIDTH 608 0
DWIDTH 7 0
BBX 7 6 0 0
BITMAP
f6
74
38
38
4c
ce
ENDCHAR
STARTCHAR y
ENCODING 121
SWIDTH 654 0
DWIDTH 7 0
BBX 7 8 0 -2
BITMAP
e6
64
64
38
38
10
10
60
ENDCHAR
STARTCHAR z
ENCODING 122
SWIDTH 584 0
DWIDTH 6 0
BBX 5 6 1 0
BITMAP
f8
b8
30
60
e8
f8
ENDCHAR
STARTCHAR braceleft
ENCODING 123
SWIDTH 366 0
DWIDTH 4 0
BBX 3 11 1 -2
BITMAP
60
60
60
c0
c0
80
c0
c0
60
60
60
ENDCHAR
STARTCHAR bar
ENCODING 124
SWIDTH 259 0
DWIDTH 3 0
BBX 1 11 1 -2
BITMAP
80
80
80
80
80
80
80
80
80
80
80
ENDCHAR
STARTCHAR braceright
ENCODING 125
SWIDTH 366 0
DWIDTH 4 0
BBX 3 11 0 -2
BITMAP
c0
c0
c0
60
60
20
60
60
c0
c0
c0
ENDCHAR
STARTCHAR asciitilde
ENCODING 126
SWIDTH 623 0
DWIDTH 7 0
BBX 6 3 0 2
BITMAP
64
b4
98
ENDCHAR
STARTCHAR nobreakspace
ENCODING 160
SWIDTH 333 0
DWIDTH 4 0
BBX 1 1 0 0
BITMAP
00
ENDCHAR
STARTCHAR Aogonek
ENCODING 161
SWIDTH 795 0
DWIDTH 9 0
BBX 9 11 0 -2
BITMAP
0800
1c00
1c00
3e00
2600
3f00
4300
4300
c380
0c00
0c00
ENDCHAR
STARTCHAR breve
ENCODING 162
SWIDTH 617 0
DWIDTH 7 0
BBX 4 2 1 7
BITMAP
90
60
ENDCHAR
STARTCHAR Lstroke
ENCODING 163
SWIDTH 584 0
DWIDTH 6 0
BBX 7 9 0 0
BITMAP
f0
60
60
70
e0
60
60
62
fe
ENDCHAR
STARTCHAR currency
ENCODING 164
SWIDTH 623 0
DWIDTH 7 0
BBX 7 9 0 0
BITMAP
82
7c
6c
44
44
44
6c
7c
82
ENDCHAR
STARTCHAR Lcaron
ENCODING 165
SWIDTH 584 0
DWIDTH 6 0
BBX 7 10 0 0
BITMAP
06
f6
66
66
60
60
60
60
62
fe
ENDCHAR
STARTCHAR Sacute
ENCODING 166
SWIDTH 556 0
DWIDTH 6 0
BBX 6 12 0 0
BITMAP
18
20
00
78
c8
c0
e0
78
1c
0c
8c
f8
ENDCHAR
STARTCHAR section
ENCODING 167
SWIDTH 623 0
DWIDTH 7 0
BBX 5 11 1 -2
BITMAP
78
c8
c0
70
f8
d8
f8
70
18
98
f0
ENDCHAR
STARTCHAR diaeresis
ENCODING 168
SWIDTH 617 0
DWIDTH 7 0
BBX 3 2 2 7
BITMAP
a0
a0
ENDCHAR
STARTCHAR Scaron
ENCODING 169
SWIDTH 556 0
DWIDTH 6 0
BBX 6 12 0 0
BITMAP
48
30
00
78
c8
c0
e0
78
1c
0c
8c
f8
ENDCHAR
STARTCHAR Scedilla
ENCODING 170
SWIDTH 556 0
DWIDTH 6 0
BBX 6 11 0 -2
BITMAP
78
c8
c0
e0
78
1c
0c
8c
f8
20
30
ENDCHAR
STARTCHAR Tcaron
ENCODING 171
SWIDTH 714 0
DWIDTH 8 0
BBX 8 12 0 0
BITMAP
24
18
00
ff
99
18
18
18
18
18
18
3c
ENDCHAR
STARTCHAR Zacute
ENCODING 172
SWIDTH 639 0
DWIDTH 7 0
BBX 6 12 0 0
BITMAP
18
20
00
fc
8c
18
38
30
70
60
c4
fc
ENDCHAR
STARTCHAR hyphen
ENCODING 173
SWIDTH 289 0
DWIDTH 3 0
BBX 3 2 0 2
BITMAP
e0
e0
ENDCHAR
STARTCHAR Zcaron
ENCODING 174
SWIDTH 639 0
DWIDTH 7 0
BBX 6 12 0 0
BITMAP
48
30
00
fc
8c
18
38
30
70
60
c4
fc
ENDCHAR
STARTCHAR Zabovedot
ENCODING 175
SWIDTH 639 0
DWIDTH 7 0
BBX 6 12 0 0
BITMAP
20
20
00
fc
8c
18
38
30
70
60
c4
fc
ENDCHAR
STARTCHAR degree
ENCODING 176
SWIDTH 259 0
DWIDTH 3 0
BBX 2 3 0 6
BITMAP
c0
c0
c0
ENDCHAR
STARTCHAR aogonek
ENCODING 177
SWIDTH 556 0
DWIDTH 6 0
BBX 6 8 0 -2
BITMAP
70
18
f8
d8
d8
6c
30
30
ENDCHAR
STARTCHAR ogonek
ENCODING 178
SWIDTH 617 0
DWIDTH 7 0
BBX 2 2 3 -2
BITMAP
c0
c0
ENDCHAR
STARTCHAR lstroke
ENCODING 179
SWIDTH 325 0
DWIDTH 4 0
BBX 5 9 1 0
BITMAP
70
30
30
38
70
b0
30
30
78
ENDCHAR
STARTCHAR acute
ENCODING 180
SWIDTH 617 0
DWIDTH 7 0
BBX 3 2 2 7
BITMAP
60
80
ENDCHAR
STARTCHAR lcaron
ENCODING 181
SWIDTH 540 0
DWIDTH 6 0
BBX 6 10 0 0
BITMAP
0c
ec
6c
6c
60
60
60
60
60
f0
ENDCHAR
STARTCHAR sacute
ENCODING 182
SWIDTH 525 0
DWIDTH 6 0
BBX 5 9 0 0
BITMAP
30
40
00
70
d0
f0
78
98
f0
ENDCHAR
STARTCHAR caron
ENCODING 183
SWIDTH 617 0
DWIDTH 7 0
BBX 4 2 1 7
BITMAP
90
60
ENDCHAR
STARTCHAR cedilla
ENCODING 184
SWIDTH 617 0
DWIDTH 7 0
BBX 2 2 3 -2
BITMAP
80
c0
ENDCHAR
STARTCHAR scaron
ENCODING 185
SWIDTH 525 0
DWIDTH 6 0
BBX 5 9 0 0
BITMAP
90
60
00
70
d0
f0
78
98
f0
ENDCHAR
STARTCHAR scedilla
ENCODING 186
SWIDTH 525 0
DWIDTH 6 0
BBX 5 8 0 -2
BITMAP
70
d0
f0
78
98
f0
20
30
ENDCHAR
STARTCHAR tcaron
ENCODING 187
SWIDTH 540 0
DWIDTH 6 0
BBX 6 11 0 0
BITMAP
0c
0c
6c
6c
60
f0
60
60
60
60
70
ENDCHAR
STARTCHAR zacute
ENCODING 188
SWIDTH 584 0
DWIDTH 6 0
BBX 5 9 1 0
BITMAP
18
20
00
f8
b8
30
60
e8
f8
ENDCHAR
STARTCHAR doubleacute
ENCODING 189
SWIDTH 617 0
DWIDTH 7 0
BBX 4 2 2 7
BITMAP
50
a0
ENDCHAR
STARTCHAR zcaron
ENCODING 190
SWIDTH 584 0
DWIDTH 6 0
BBX 5 9 1 0
BITMAP
48
30
00
f8
b8
30
60
e8
f8
ENDCHAR
STARTCHAR zabovedot
ENCODING 191
SWIDTH 584 0
DWIDTH 6 0
BBX 5 9 1 0
BITMAP
20
20
00
f8
b8
30
60
e8
f8
ENDCHAR
STARTCHAR Racute
ENCODING 192
SWIDTH 720 0
DWIDTH 8 0
BBX 7 12 1 0
BITMAP
18
20
00
f8
6c
6c
6c
78
78
6c
6e
fe
ENDCHAR
STARTCHAR Aacute
ENCODING 193
SWIDTH 795 0
DWIDTH 9 0
BBX 9 11 0 0
BITMAP
0c00
1000
0800
1c00
1c00
3e00
2600
3f00
4300
4300
c380
ENDCHAR
STARTCHAR Acircumflex
ENCODING 194
SWIDTH 795 0
DWIDTH 9 0
BBX 9 11 0 0
BITMAP
0c00
1200
0800
1c00
1c00
3e00
2600
3f00
4300
4300
c380
ENDCHAR
STARTCHAR Abreve
ENCODING 195
SWIDTH 795 0
DWIDTH 9 0
BBX 9 12 0 0
BITMAP
1200
0c00
0000
0800
1c00
1c00
3e00
2600
3f00
4300
4300
c380
ENDCHAR
STARTCHAR Adiaeresis
ENCODING 196
SWIDTH 795 0
DWIDTH 9 0
BBX 9 11 0 0
BITMAP
1400
1400
0800
1c00
1c00
3e00
2600
3f00
4300
4300
c380
ENDCHAR
STARTCHAR Lacute
ENCODING 197
SWIDTH 584 0
DWIDTH 6 0
BBX 7 12 0 0
BITMAP
30
40
00
f0
60
60
60
60
60
60
62
fe
ENDCHAR
STARTCHAR Cacute
ENCODING 198
SWIDTH 711 0
DWIDTH 8 0
BBX 7 12 0 0
BITMAP
0c
10
00
3e
62
c0
c0
c0
c0
c0
62
3e
ENDCHAR
STARTCHAR Ccedilla
ENCODING 199
SWIDTH 711 0
DWIDTH 8 0
BBX 7 11 0 -2
BITMAP
3e
62
c0
c0
c0
c0
c0
62
3e
10
18
ENDCHAR
STARTCHAR Ccaron
ENCODING 200
SWIDTH 711 0
DWIDTH 8 0
BBX 7 12 0 0
BITMAP
24
18
00
3e
62
c0
c0
c0
c0
c0
62
3e
ENDCHAR
STARTCHAR Eacute
ENCODING 201
SWIDTH 601 0
DWIDTH 7 0
BBX 6 11 0 0
BITMAP
18
20
fc
64
60
68
78
68
60
64
fc
ENDCHAR
STARTCHAR Eogonek
ENCODING 202
SWIDTH 601 0
DWIDTH 7 0
BBX 6 11 0 -2
BITMAP
fc
64
60
68
78
68
60
64
fc
30
30
ENDCHAR
STARTCHAR Ediaeresis
ENCODING 203
SWIDTH 601 0
DWIDTH 7 0
BBX 6 11 0 0
BITMAP
28
28
fc
64
60
68
78
68
60
64
fc
ENDCHAR
STARTCHAR Ecaron
ENCODING 204
SWIDTH 601 0
DWIDTH 7 0
BBX 6 12 0 0
BITMAP
48
30
00
fc
64
60
68
78
68
60
64
fc
ENDCHAR
STARTCHAR Iacute
ENCODING 205
SWIDTH 349 0
DWIDTH 4 0
BBX 4 11 0 0
BITMAP
30
40
f0
60
60
60
60
60
60
60
f0
ENDCHAR
STARTCHAR Icircumflex
ENCODING 206
SWIDTH 349 0
DWIDTH 4 0
BBX 4 11 0 0
BITMAP
60
90
f0
60
60
60
60
60
60
60
f0
ENDCHAR
STARTCHAR Dcaron
ENCODING 207
SWIDTH 794 0
DWIDTH 9 0
BBX 8 12 0 0
BITMAP
24
18
00
fc
66
63
63
63
63
63
66
fc
ENDCHAR
STARTCHAR Dstroke
ENCODING 208
SWIDTH 794 0
DWIDTH 9 0
BBX 8 9 0 0
BITMAP
fc
66
63
63
fb
63
63
66
fc
ENDCHAR
STARTCHAR Nacute
ENCODING 209
SWIDTH 788 0
DWIDTH 9 0
BBX 8 12 0 0
BITMAP
0c
10
00
e7
62
72
72
5a
5e
4e
46
e6
ENDCHAR
STARTCHAR Ncaron
ENCODING 210
SWIDTH 788 0
DWIDTH 9 0
BBX 8 12 0 0
BITMAP
24
18
00
e7
62
72
72
5a
5e
4e
46
e6
ENDCHAR
STARTCHAR Oacute
ENCODING 211
SWIDTH 810 0
DWIDTH 9 0
BBX 8 11 0 0
BITMAP
0c
10
3c
66
c3
c3
c3
c3
c3
66
3c
ENDCHAR
STARTCHAR Ocircumflex
ENCODING 212
SWIDTH 810 0
DWIDTH 9 0
BBX 8 11 0 0
BITMAP
18
24
3c
66
c3
c3
c3
c3
c3
66
3c
ENDCHAR
STARTCHAR Odoubleacute
ENCODING 213
SWIDTH 810 0
DWIDTH 9 0
BBX 8 12 0 0
BITMAP
14
28
00
3c
66
c3
c3
c3
c3
c3
66
3c
ENDCHAR
STARTCHAR Odiaeresis
ENCODING 214
SWIDTH 810 0
DWIDTH 9 0
BBX 8 11 0 0
BITMAP
28
28
3c
66
c3
c3
c3
c3
c3
66
3c
ENDCHAR
STARTCHAR multiply
ENCODING 215
SWIDTH 623 0
DWIDTH 7 0
BBX 6 8 0 0
BITMAP
84
4c
48
30
30
48
c8
84
ENDCHAR
STARTCHAR Rcaron
ENCODING 216
SWIDTH 720 0
DWIDTH 8 0
BBX 7 12 1 0
BITMAP
48
30
00
f8
6c
6c
6c
78
78
6c
6e
fe
ENDCHAR
STARTCHAR Uring
ENCODING 217
SWIDTH 747 0
DWIDTH 8 0
BBX 8 12 0 0
BITMAP
18
18
00
f7
62
62
62
62
62
62
62
3c
ENDCHAR
STARTCHAR Uacute
ENCODING 218
SWIDTH 747 0
DWIDTH 8 0
BBX 8 11 0 0
BITMAP
0c
10
f7
62
62
62
62
62
62
62
3c
ENDCHAR
STARTCHAR Udoubleacute
ENCODING 219
SWIDTH 747 0
DWIDTH 8 0
BBX 8 12 0 0
BITMAP
14
28
00
f7
62
62
62
62
62
62
62
3c
ENDCHAR
STARTCHAR Udiaeresis
ENCODING 220
SWIDTH 747 0
DWIDTH 8 0
BBX 8 11 0 0
BITMAP
28
28
f7
62
62
62
62
62
62
62
3c
ENDCHAR
STARTCHAR Yacute
ENCODING 221
SWIDTH 717 0
DWIDTH 8 0
BBX 8 11 0 0
BITMAP
0c
10
e3
62
72
34
38
18
18
18
3c
ENDCHAR
STARTCHAR Tcedilla
ENCODING 222
SWIDTH 714 0
DWIDTH 8 0
BBX 8 11 0 -2
BITMAP
ff
99
18
18
18
18
18
18
3c
10
18
ENDCHAR
STARTCHAR ssharp
ENCODING 223
SWIDTH 700 0
DWIDTH 8 0
BBX 7 9 0 0
BITMAP
38
6c
68
70
78
7c
6e
76
fc
ENDCHAR
STARTCHAR racute
ENCODING 224
SWIDTH 462 0
DWIDTH 5 0
BBX 5 9 0 0
BITMAP
18
20
00
e8
78
60
60
60
f0
ENDCHAR
STARTCHAR aacute
ENCODING 225
SWIDTH 556 0
DWIDTH 6 0
BBX 6 8 0 0
BITMAP
18
20
70
18
f8
d8
d8
6c
ENDCHAR
STARTCHAR acircumflex
ENCODING 226
SWIDTH 556 0
DWIDTH 6 0
BBX 6 8 0 0
BITMAP
30
48
70
18
f8
d8
d8
6c
ENDCHAR
STARTCHAR abreve
ENCODING 227
SWIDTH 556 0
DWIDTH 6 0
BBX 6 9 0 0
BITMAP
48
30
00
70
18
f8
d8
d8
6c
ENDCHAR
STARTCHAR adiaeresis
ENCODING 228
SWIDTH 556 0
DWIDTH 6 0
BBX 6 8 0 0
BITMAP
50
50
70
18
f8
d8
d8
6c
ENDCHAR
STARTCHAR lacute
ENCODING 229
SWIDTH 325 0
DWIDTH 4 0
BBX 4 12 0 0
BITMAP
30
40
00
e0
60
60
60
60
60
60
60
f0
ENDCHAR
STARTCHAR cacute
ENCODING 230
SWIDTH 541 0
DWIDTH 6 0
BBX 5 9 0 0
BITMAP
18
20
00
78
c8
c0
c0
e0
78
ENDCHAR
STARTCHAR ccedilla
ENCODING 231
SWIDTH 541 0
DWIDTH 6 0
BBX 5 8 0 -2
BITMAP
78
c8
c0
c0
e0
78
20
30
ENDCHAR
STARTCHAR ccaron
ENCODING 232
SWIDTH 541 0
DWIDTH 6 0
BBX 5 9 0 0
BITMAP
48
30
00
78
c8
c0
c0
e0
78
ENDCHAR
STARTCHAR eacute
ENCODING 233
SWIDTH 568 0
DWIDTH 6 0
BBX 5 8 0 0
BITMAP
30
40
70
d8
f8
c0
e0
78
ENDCHAR
STARTCHAR eogonek
ENCODING 234
SWIDTH 568 0
DWIDTH 6 0
BBX 5 8 0 -2
BITMAP
70
d8
f8
c0
e0
78
30
30
ENDCHAR
STARTCHAR ediaeresis
ENCODING 235
SWIDTH 568 0
DWIDTH 6 0
BBX 5 8 0 0
BITMAP
50
50
70
d8
f8
c0
e0
78
ENDCHAR
STARTCHAR ecaron
ENCODING 236
SWIDTH 568 0
DWIDTH 6 0
BBX 5 9 0 0
BITMAP
48
30
00
70
d8
f8
c0
e0
78
ENDCHAR
STARTCHAR iacute
ENCODING 237
SWIDTH 325 0
DWIDTH 4 0
BBX 4 8 0 0
BITMAP
30
40
e0
60
60
60
60
f0
ENDCHAR
STARTCHAR icircumflex
ENCODING 238
SWIDTH 325 0
DWIDTH 4 0
BBX 4 8 0 0
BITMAP
60
90
e0
60
60
60
60
f0
ENDCHAR
STARTCHAR dcaron
ENCODING 239
SWIDTH 810 0
DWIDTH 9 0
BBX 9 10 0 0
BITMAP
0180
1d80
0d80
0d80
7c00
cc00
cc00
cc00
fc00
6e00
ENDCHAR
STARTCHAR dstroke
ENCODING 240
SWIDTH 720 0
DWIDTH 8 0
BBX 8 9 0 0
BITMAP
0c
3f
0c
7c
cc
cc
cc
fc
6e
ENDCHAR
STARTCHAR nacute
ENCODING 241
SWIDTH 654 0
DWIDTH 7 0
BBX 7 9 0 0
BITMAP
18
20
00
ec
7c
6c
6c
6c
fe
ENDCHAR
STARTCHAR ncaron
ENCODING 242
SWIDTH 654 0
DWIDTH 7 0
BBX 7 9 0 0
BITMAP
48
30
00
ec
7c
6c
6c
6c
fe
ENDCHAR
STARTCHAR oacute
ENCODING 243
SWIDTH 617 0
DWIDTH 7 0
BBX 6 8 0 0
BITMAP
18
20
78
cc
cc
cc
cc
78
ENDCHAR
STARTCHAR ocircumflex
ENCODING 244
SWIDTH 617 0
DWIDTH 7 0
BBX 6 8 0 0
BITMAP
30
48
78
cc
cc
cc
cc
78
ENDCHAR
STARTCHAR odoubleacute
ENCODING 245
SWIDTH 617 0
DWIDTH 7 0
BBX 6 9 0 0
BITMAP
28
50
00
78
cc
cc
cc
cc
78
ENDCHAR
STARTCHAR odiaeresis
ENCODING 246
SWIDTH 617 0
DWIDTH 7 0
BBX 6 8 0 0
BITMAP
50
50
78
cc
cc
cc
cc
78
ENDCHAR
STARTCHAR division
ENCODING 247
SWIDTH 623 0
DWIDTH 7 0
BBX 8 6 0 0
BITMAP
18
18
00
ff
18
18
ENDCHAR
STARTCHAR rcaron
ENCODING 248
SWIDTH 462 0
DWIDTH 5 0
BBX 5 9 0 0
BITMAP
48
30
00
e8
78
60
60
60
f0
ENDCHAR
STARTCHAR uring
ENCODING 249
SWIDTH 654 0
DWIDTH 7 0
BBX 7 9 0 0
BITMAP
30
30
00
fc
6c
6c
6c
7c
6e
ENDCHAR
STARTCHAR uacute
ENCODING 250
SWIDTH 654 0
DWIDTH 7 0
BBX 7 8 0 0
BITMAP
18
20
fc
6c
6c
6c
7c
6e
ENDCHAR
STARTCHAR udoubleacute
ENCODING 251
SWIDTH 654 0
DWIDTH 7 0
BBX 7 9 0 0
BITMAP
28
50
00
fc
6c
6c
6c
7c
6e
ENDCHAR
STARTCHAR udiaeresis
ENCODING 252
SWIDTH 654 0
DWIDTH 7 0
BBX 7 8 0 0
BITMAP
28
28
fc
6c
6c
6c
7c
6e
ENDCHAR
STARTCHAR yacute
ENCODING 253
SWIDTH 654 0
DWIDTH 7 0
BBX 7 10 0 -2
BITMAP
18
20
e6
64
64
38
38
10
10
60
ENDCHAR
STARTCHAR tcedilla
ENCODING 254
SWIDTH 389 0
DWIDTH 4 0
BBX 4 11 0 -2
BITMAP
60
60
60
f0
60
60
60
60
70
40
60
ENDCHAR
STARTCHAR abovedot
ENCODING 255
SWIDTH 617 0
DWIDTH 7 0
BBX 1 2 3 7
BITMAP
80
80
ENDCHAR
ENDFONT
